<?xml version="1.0" encoding="UTF-8"?>
<svg id="Layer_2" data-name="Layer 2" xmlns="http://www.w3.org/2000/svg" xmlns:xlink="http://www.w3.org/1999/xlink" viewBox="0 0 503.58 236.32">
  <defs>
    <style>
      .cls-1 {
        fill: url(#linear-gradient);
        stroke-width: 0px;
      }
    </style>
    <linearGradient id="linear-gradient" x1="0" y1="118.16" x2="503.58" y2="118.16" gradientUnits="userSpaceOnUse">
      <stop offset="0" stop-color="#b91c1c"/>
      <stop offset="1" stop-color="#dc2626"/>
    </linearGradient>
  </defs>
  <g id="Layer_1-2" data-name="Layer 1">
    <path class="cls-1" d="m232.04,236h-52.15c-2.17,0-3.93-1.76-3.93-3.93V63.93c0-2.17-1.76-3.93-3.93-3.93h-31.99c-1.04,0-2.04.41-2.78,1.15l-76.13,76.11c-.74.74-1.15,1.73-1.15,2.78v92.04c0,2.17-1.76,3.93-3.93,3.93H3.93c-2.17,0-3.93-1.76-3.93-3.93v-116.9c0-1.04.41-2.04,1.15-2.78L112.43,1.15c.74-.74,1.73-1.15,2.78-1.15h116.84c2.17,0,3.93,1.76,3.93,3.93v228.15c0,2.17-1.76,3.93-3.93,3.93Zm134.3-88.35c-.74-.74-1.73-1.15-2.78-1.15h-29.46c-1.05,0-2.05.42-2.78,1.16l-50.13,50.45c-.73.74-1.14,1.73-1.14,2.77v31.52c0,2.17,1.76,3.93,3.93,3.93h31.5c1.05,0,2.05-.42,2.79-1.16l64.8-65.26c1.52-1.54,1.52-4.01-.01-5.54l-16.71-16.7Zm133.31-93.51c2.17,0,3.93-1.76,3.93-3.93V5.65c0-2.17-1.76-3.93-3.93-3.93h-21.71c-1.05,0-2.05.42-2.78,1.16l-83.3,83.83L308.58,2.88c-.74-.74-1.74-1.16-2.79-1.16h-21.81c-2.17,0-3.93,1.76-3.93,3.93v44.57c0,2.17,1.76,3.93,3.93,3.93h.1c1.05,0,2.05.42,2.79,1.16l178.51,179.76c.74.74,1.74,1.16,2.79,1.16h31.5c2.17,0,3.93-1.76,3.93-3.93v-31.52c0-1.04-.41-2.03-1.14-2.77l-73.66-74.14,68.09-68.57c.74-.74,1.74-1.16,2.79-1.16Z"/>
  </g>
</svg>