<?xml version="1.0" encoding="UTF-8"?>
<svg id="Layer_2" data-name="Layer 2" xmlns="http://www.w3.org/2000/svg" xmlns:xlink="http://www.w3.org/1999/xlink" viewBox="0 0 1478.82 237.23">
  <defs>
    <style>
      .cls-1 {
        fill: url(#linear-gradient);
        stroke-width: 0px;
      }
    </style>
    <linearGradient id="linear-gradient" x1="0" y1="118.61" x2="1478.82" y2="118.61" gradientUnits="userSpaceOnUse">
      <stop offset="0" stop-color="#b91c1c"/>
      <stop offset="1" stop-color="#dc2626"/>
    </linearGradient>
  </defs>
  <g id="Layer_1-2" data-name="Layer 1">
    <path class="cls-1" d="m500.91,236.01h-52.15c-2.17,0-3.93-1.76-3.93-3.93v-92.04c0-1.04-.41-2.04-1.15-2.78l-76.13-76.11c-.74-.74-1.73-1.15-2.78-1.15h-31.99c-2.17,0-3.93,1.76-3.93,3.93v168.15c0,2.17-1.76,3.93-3.93,3.93h-52.15c-2.17,0-3.93-1.76-3.93-3.93V3.94c0-2.17,1.76-3.93,3.93-3.93h116.84c1.04,0,2.04.41,2.78,1.15l111.28,111.25c.74.74,1.15,1.73,1.15,2.78v116.9c0,2.17-1.76,3.93-3.93,3.93Zm-264.94-3.93V3.94c0-2.17-1.76-3.93-3.93-3.93h-116.84c-1.04,0-2.04.41-2.78,1.15L1.15,112.41c-.74.74-1.15,1.73-1.15,2.78v116.9c0,2.17,1.76,3.93,3.93,3.93h52.15c2.17,0,3.93-1.76,3.93-3.93v-92.04c0-1.04.41-2.04,1.15-2.78l76.13-76.11c.74-.74,1.73-1.15,2.78-1.15h31.99c2.17,0,3.93,1.76,3.93,3.93v168.15c0,2.17,1.76,3.93,3.93,3.93h52.15c2.17,0,3.93-1.76,3.93-3.93Zm610.58,1.22v-117.4c0-1.04-.41-2.04-1.15-2.78L733.71,1.44c-.74-.74-1.73-1.15-2.78-1.15h-96.37c-2.17,0-3.93,1.76-3.93,3.93v229.09c0,2.17,1.76,3.93,3.93,3.93h52.15c2.17,0,3.93-1.76,3.93-3.93V64.22c0-2.17,1.76-3.93,3.93-3.93h11.52c1.04,0,2.04.41,2.78,1.15l76.54,76.54c.74.74,1.15,1.73,1.15,2.78v92.54c0,2.17,1.76,3.93,3.93,3.93h52.15c2.17,0,3.93-1.76,3.93-3.93Zm-251.89-196.66l-33.57-33.57c-1.97-1.97-4.65-3.08-7.44-3.08h-11.99c-2.17,0-3.92,1.76-3.92,3.92v191.54c0,2.79,1.11,5.47,3.08,7.44l30.03,30.03c1.97,1.97,4.65,3.08,7.44,3.08h15.52c2.17,0,3.93-1.76,3.93-3.93V44.09c0-2.79-1.11-5.47-3.08-7.44Zm341.24,35.54L865.51,1.81c-.97-.97-2.29-1.52-3.67-1.52h-31.16c-5.04,0-9.12,4.08-9.12,9.12v29.53c0,2.42.96,4.74,2.67,6.45l51.66,51.67c1.71,1.71,2.67,4.03,2.67,6.45v124.62c0,5.04,4.08,9.12,9.12,9.12h41.76c5.04,0,9.12-4.08,9.12-9.12V78.64c0-2.42-.96-4.74-2.67-6.45Zm272.42,160.65V4.69c0-2.17-1.76-3.93-3.93-3.93h-116.84c-1.04,0-2.04.41-2.78,1.15l-111.28,111.25c-.74.74-1.15,1.73-1.15,2.78v116.9c0,2.17,1.76,3.93,3.93,3.93h52.15c2.17,0,3.93-1.76,3.93-3.93v-92.04c0-1.04.41-2.04,1.15-2.78l76.13-76.11c.74-.74,1.73-1.15,2.78-1.15h31.99c2.17,0,3.93,1.76,3.93,3.93v168.15c0,2.17,1.76,3.93,3.93,3.93h52.15c2.17,0,3.93-1.76,3.93-3.93Zm133.26-85.18c-.74-.74-1.73-1.15-2.78-1.15h-29.46c-1.05,0-2.05.42-2.78,1.16l-50.13,50.45c-.73.74-1.14,1.73-1.14,2.77v31.52c0,2.17,1.76,3.93,3.93,3.93h31.5c1.05,0,2.05-.42,2.79-1.16l64.8-65.26c1.52-1.54,1.52-4.01-.01-5.54l-16.71-16.7Zm133.31-93.51c2.17,0,3.93-1.76,3.93-3.93V5.66c0-2.17-1.76-3.93-3.93-3.93h-21.71c-1.05,0-2.05.42-2.78,1.16l-83.3,83.83L1283.81,2.89c-.74-.74-1.74-1.16-2.79-1.16h-21.81c-2.17,0-3.93,1.76-3.93,3.93v44.57c0,2.17,1.76,3.93,3.93,3.93h.1c1.05,0,2.05.42,2.79,1.16l178.51,179.76c.74.74,1.74,1.16,2.79,1.16h31.5c2.17,0,3.93-1.76,3.93-3.93v-31.52c0-1.04-.41-2.03-1.14-2.77l-73.66-74.14,68.09-68.57c.74-.74,1.74-1.16,2.79-1.16Z"/>
  </g>
</svg>